<?xml version="1.0" encoding="UTF-8" standalone="no"?>
<svg
   width="379.897313pt"
   height="387.045625pt"
   viewBox="0 0 379.897313 387.045625"
   version="1.1"
   id="svg134"
   sodipodi:docname="heavy_balanced_all_correct.svg"
   inkscape:export-filename="heavy_balanced_all_correct.png"
   inkscape:export-xdpi="300"
   inkscape:export-ydpi="300"
   inkscape:version="1.4 (1:1.4+202410161351+e7c3feb100)"
   xmlns:inkscape="http://www.inkscape.org/namespaces/inkscape"
   xmlns:sodipodi="http://sodipodi.sourceforge.net/DTD/sodipodi-0.dtd"
   xmlns:xlink="http://www.w3.org/1999/xlink"
   xmlns="http://www.w3.org/2000/svg"
   xmlns:svg="http://www.w3.org/2000/svg"
   xmlns:rdf="http://www.w3.org/1999/02/22-rdf-syntax-ns#"
   xmlns:cc="http://creativecommons.org/ns#"
   xmlns:dc="http://purl.org/dc/elements/1.1/">
  <sodipodi:namedview
     id="namedview134"
     pagecolor="#ffffff"
     bordercolor="#000000"
     borderopacity="0.25"
     inkscape:showpageshadow="2"
     inkscape:pageopacity="0.0"
     inkscape:pagecheckerboard="0"
     inkscape:deskcolor="#d1d1d1"
     inkscape:document-units="pt"
     inkscape:zoom="1.175249"
     inkscape:cx="205.06292"
     inkscape:cy="282.91876"
     inkscape:window-width="2212"
     inkscape:window-height="1435"
     inkscape:window-x="0"
     inkscape:window-y="0"
     inkscape:window-maximized="1"
     inkscape:current-layer="svg134" />
  <metadata
     id="metadata1">
    <rdf:RDF>
      <cc:Work>
        <dc:type
           rdf:resource="http://purl.org/dc/dcmitype/StillImage" />
        <dc:date>2025-01-13T09:32:03.233851</dc:date>
        <dc:format>image/svg+xml</dc:format>
        <dc:creator>
          <cc:Agent>
            <dc:title>Matplotlib v3.10.0, https://matplotlib.org/</dc:title>
          </cc:Agent>
        </dc:creator>
      </cc:Work>
    </rdf:RDF>
  </metadata>
  <defs
     id="defs1">
    <style
       type="text/css"
       id="style1">*{stroke-linejoin: round; stroke-linecap: butt}</style>
  </defs>
  <g
     id="figure_1">
    <g
       id="patch_1">
      <path
         d="M 0 387.045625  L 379.897313 387.045625  L 379.897313 -0  L 0 -0  z "
         style="fill: #ffffff"
         id="path1" />
    </g>
    <g
       id="axes_1">
      <g
         id="patch_2">
        <path
           d="M 49.807188 344.085937  L 333.12946 344.085937  L 333.12946 59.745937  L 49.807188 59.745937  z "
           style="fill: #eaeaf2"
           id="path2" />
      </g>
      <g
         id="matplotlib.axis_1">
        <g
           id="xtick_1">
          <g
             id="line2d_1">
            <path
               d="M 62.685473 344.085937  L 62.685473 59.745937  "
               clip-path="url(#p7deb2f501c)"
               style="fill: none; stroke: #ffffff; stroke-linecap: round"
               id="path3" />
          </g>
          <g
             id="text_1">
            <!-- 0 -->
            <g
               style="fill: #262626"
               transform="translate(59.186098 361.944219) scale(0.11 -0.11)"
               id="g3">
              <defs
                 id="defs3">
                <path
                   id="DejaVuSans-30"
                   d="M 2034 4250  Q 1547 4250 1301 3770  Q 1056 3291 1056 2328  Q 1056 1369 1301 889  Q 1547 409 2034 409  Q 2525 409 2770 889  Q 3016 1369 3016 2328  Q 3016 3291 2770 3770  Q 2525 4250 2034 4250  z M 2034 4750  Q 2819 4750 3233 4129  Q 3647 3509 3647 2328  Q 3647 1150 3233 529  Q 2819 -91 2034 -91  Q 1250 -91 836 529  Q 422 1150 422 2328  Q 422 3509 836 4129  Q 1250 4750 2034 4750  z "
                   transform="scale(0.015625)" />
              </defs>
              <use
                 xlink:href="#DejaVuSans-30"
                 id="use3" />
            </g>
          </g>
        </g>
        <g
           id="xtick_2">
          <g
             id="line2d_2">
            <path
               d="M 103.962027 344.085937  L 103.962027 59.745937  "
               clip-path="url(#p7deb2f501c)"
               style="fill: none; stroke: #ffffff; stroke-linecap: round"
               id="path4" />
          </g>
          <g
             id="text_2">
            <!-- 250 -->
            <g
               style="fill: #262626"
               transform="translate(93.463902 361.944219) scale(0.11 -0.11)"
               id="g6">
              <defs
                 id="defs4">
                <path
                   id="DejaVuSans-32"
                   d="M 1228 531  L 3431 531  L 3431 0  L 469 0  L 469 531  Q 828 903 1448 1529  Q 2069 2156 2228 2338  Q 2531 2678 2651 2914  Q 2772 3150 2772 3378  Q 2772 3750 2511 3984  Q 2250 4219 1831 4219  Q 1534 4219 1204 4116  Q 875 4013 500 3803  L 500 4441  Q 881 4594 1212 4672  Q 1544 4750 1819 4750  Q 2544 4750 2975 4387  Q 3406 4025 3406 3419  Q 3406 3131 3298 2873  Q 3191 2616 2906 2266  Q 2828 2175 2409 1742  Q 1991 1309 1228 531  z "
                   transform="scale(0.015625)" />
                <path
                   id="DejaVuSans-35"
                   d="M 691 4666  L 3169 4666  L 3169 4134  L 1269 4134  L 1269 2991  Q 1406 3038 1543 3061  Q 1681 3084 1819 3084  Q 2600 3084 3056 2656  Q 3513 2228 3513 1497  Q 3513 744 3044 326  Q 2575 -91 1722 -91  Q 1428 -91 1123 -41  Q 819 9 494 109  L 494 744  Q 775 591 1075 516  Q 1375 441 1709 441  Q 2250 441 2565 725  Q 2881 1009 2881 1497  Q 2881 1984 2565 2268  Q 2250 2553 1709 2553  Q 1456 2553 1204 2497  Q 953 2441 691 2322  L 691 4666  z "
                   transform="scale(0.015625)" />
              </defs>
              <use
                 xlink:href="#DejaVuSans-32"
                 id="use4" />
              <use
                 xlink:href="#DejaVuSans-35"
                 transform="translate(63.623047 0)"
                 id="use5" />
              <use
                 xlink:href="#DejaVuSans-30"
                 transform="translate(127.246094 0)"
                 id="use6" />
            </g>
          </g>
        </g>
        <g
           id="xtick_3">
          <g
             id="line2d_3">
            <path
               d="M 145.238582 344.085937  L 145.238582 59.745937  "
               clip-path="url(#p7deb2f501c)"
               style="fill: none; stroke: #ffffff; stroke-linecap: round"
               id="path6" />
          </g>
          <g
             id="text_3">
            <!-- 500 -->
            <g
               style="fill: #262626"
               transform="translate(134.740457 361.944219) scale(0.11 -0.11)"
               id="g9">
              <use
                 xlink:href="#DejaVuSans-35"
                 id="use7" />
              <use
                 xlink:href="#DejaVuSans-30"
                 transform="translate(63.623047 0)"
                 id="use8" />
              <use
                 xlink:href="#DejaVuSans-30"
                 transform="translate(127.246094 0)"
                 id="use9" />
            </g>
          </g>
        </g>
        <g
           id="xtick_4">
          <g
             id="line2d_4">
            <path
               d="M 186.515137 344.085937  L 186.515137 59.745937  "
               clip-path="url(#p7deb2f501c)"
               style="fill: none; stroke: #ffffff; stroke-linecap: round"
               id="path9" />
          </g>
          <g
             id="text_4">
            <!-- 750 -->
            <g
               style="fill: #262626"
               transform="translate(176.017012 361.944219) scale(0.11 -0.11)"
               id="g12">
              <defs
                 id="defs9">
                <path
                   id="DejaVuSans-37"
                   d="M 525 4666  L 3525 4666  L 3525 4397  L 1831 0  L 1172 0  L 2766 4134  L 525 4134  L 525 4666  z "
                   transform="scale(0.015625)" />
              </defs>
              <use
                 xlink:href="#DejaVuSans-37"
                 id="use10" />
              <use
                 xlink:href="#DejaVuSans-35"
                 transform="translate(63.623047 0)"
                 id="use11" />
              <use
                 xlink:href="#DejaVuSans-30"
                 transform="translate(127.246094 0)"
                 id="use12" />
            </g>
          </g>
        </g>
        <g
           id="xtick_5">
          <g
             id="line2d_5">
            <path
               d="M 227.791692 344.085937  L 227.791692 59.745937  "
               clip-path="url(#p7deb2f501c)"
               style="fill: none; stroke: #ffffff; stroke-linecap: round"
               id="path12" />
          </g>
          <g
             id="text_5">
            <!-- 1000 -->
            <g
               style="fill: #262626"
               transform="translate(213.794192 361.944219) scale(0.11 -0.11)"
               id="g16">
              <defs
                 id="defs12">
                <path
                   id="DejaVuSans-31"
                   d="M 794 531  L 1825 531  L 1825 4091  L 703 3866  L 703 4441  L 1819 4666  L 2450 4666  L 2450 531  L 3481 531  L 3481 0  L 794 0  L 794 531  z "
                   transform="scale(0.015625)" />
              </defs>
              <use
                 xlink:href="#DejaVuSans-31"
                 id="use13" />
              <use
                 xlink:href="#DejaVuSans-30"
                 transform="translate(63.623047 0)"
                 id="use14" />
              <use
                 xlink:href="#DejaVuSans-30"
                 transform="translate(127.246094 0)"
                 id="use15" />
              <use
                 xlink:href="#DejaVuSans-30"
                 transform="translate(190.869141 0)"
                 id="use16" />
            </g>
          </g>
        </g>
        <g
           id="xtick_6">
          <g
             id="line2d_6">
            <path
               d="M 269.068247 344.085937  L 269.068247 59.745937  "
               clip-path="url(#p7deb2f501c)"
               style="fill: none; stroke: #ffffff; stroke-linecap: round"
               id="path16" />
          </g>
          <g
             id="text_6">
            <!-- 1250 -->
            <g
               style="fill: #262626"
               transform="translate(255.070747 361.944219) scale(0.11 -0.11)"
               id="g20">
              <use
                 xlink:href="#DejaVuSans-31"
                 id="use17" />
              <use
                 xlink:href="#DejaVuSans-32"
                 transform="translate(63.623047 0)"
                 id="use18" />
              <use
                 xlink:href="#DejaVuSans-35"
                 transform="translate(127.246094 0)"
                 id="use19" />
              <use
                 xlink:href="#DejaVuSans-30"
                 transform="translate(190.869141 0)"
                 id="use20" />
            </g>
          </g>
        </g>
        <g
           id="xtick_7">
          <g
             id="line2d_7">
            <path
               d="M 310.344802 344.085937  L 310.344802 59.745937  "
               clip-path="url(#p7deb2f501c)"
               style="fill: none; stroke: #ffffff; stroke-linecap: round"
               id="path20" />
          </g>
          <g
             id="text_7">
            <!-- 1500 -->
            <g
               style="fill: #262626"
               transform="translate(296.347302 361.944219) scale(0.11 -0.11)"
               id="g24">
              <use
                 xlink:href="#DejaVuSans-31"
                 id="use21" />
              <use
                 xlink:href="#DejaVuSans-35"
                 transform="translate(63.623047 0)"
                 id="use22" />
              <use
                 xlink:href="#DejaVuSans-30"
                 transform="translate(127.246094 0)"
                 id="use23" />
              <use
                 xlink:href="#DejaVuSans-30"
                 transform="translate(190.869141 0)"
                 id="use24" />
            </g>
          </g>
        </g>
        <g
           id="text_8">
          <!-- batch -->
          <g
             style="fill: #262626"
             transform="translate(174.528636 377.35) scale(0.12 -0.12)"
             id="g29">
            <defs
               id="defs24">
              <path
                 id="DejaVuSans-62"
                 d="M 3116 1747  Q 3116 2381 2855 2742  Q 2594 3103 2138 3103  Q 1681 3103 1420 2742  Q 1159 2381 1159 1747  Q 1159 1113 1420 752  Q 1681 391 2138 391  Q 2594 391 2855 752  Q 3116 1113 3116 1747  z M 1159 2969  Q 1341 3281 1617 3432  Q 1894 3584 2278 3584  Q 2916 3584 3314 3078  Q 3713 2572 3713 1747  Q 3713 922 3314 415  Q 2916 -91 2278 -91  Q 1894 -91 1617 61  Q 1341 213 1159 525  L 1159 0  L 581 0  L 581 4863  L 1159 4863  L 1159 2969  z "
                 transform="scale(0.015625)" />
              <path
                 id="DejaVuSans-61"
                 d="M 2194 1759  Q 1497 1759 1228 1600  Q 959 1441 959 1056  Q 959 750 1161 570  Q 1363 391 1709 391  Q 2188 391 2477 730  Q 2766 1069 2766 1631  L 2766 1759  L 2194 1759  z M 3341 1997  L 3341 0  L 2766 0  L 2766 531  Q 2569 213 2275 61  Q 1981 -91 1556 -91  Q 1019 -91 701 211  Q 384 513 384 1019  Q 384 1609 779 1909  Q 1175 2209 1959 2209  L 2766 2209  L 2766 2266  Q 2766 2663 2505 2880  Q 2244 3097 1772 3097  Q 1472 3097 1187 3025  Q 903 2953 641 2809  L 641 3341  Q 956 3463 1253 3523  Q 1550 3584 1831 3584  Q 2591 3584 2966 3190  Q 3341 2797 3341 1997  z "
                 transform="scale(0.015625)" />
              <path
                 id="DejaVuSans-74"
                 d="M 1172 4494  L 1172 3500  L 2356 3500  L 2356 3053  L 1172 3053  L 1172 1153  Q 1172 725 1289 603  Q 1406 481 1766 481  L 2356 481  L 2356 0  L 1766 0  Q 1100 0 847 248  Q 594 497 594 1153  L 594 3053  L 172 3053  L 172 3500  L 594 3500  L 594 4494  L 1172 4494  z "
                 transform="scale(0.015625)" />
              <path
                 id="DejaVuSans-63"
                 d="M 3122 3366  L 3122 2828  Q 2878 2963 2633 3030  Q 2388 3097 2138 3097  Q 1578 3097 1268 2742  Q 959 2388 959 1747  Q 959 1106 1268 751  Q 1578 397 2138 397  Q 2388 397 2633 464  Q 2878 531 3122 666  L 3122 134  Q 2881 22 2623 -34  Q 2366 -91 2075 -91  Q 1284 -91 818 406  Q 353 903 353 1747  Q 353 2603 823 3093  Q 1294 3584 2113 3584  Q 2378 3584 2631 3529  Q 2884 3475 3122 3366  z "
                 transform="scale(0.015625)" />
              <path
                 id="DejaVuSans-68"
                 d="M 3513 2113  L 3513 0  L 2938 0  L 2938 2094  Q 2938 2591 2744 2837  Q 2550 3084 2163 3084  Q 1697 3084 1428 2787  Q 1159 2491 1159 1978  L 1159 0  L 581 0  L 581 4863  L 1159 4863  L 1159 2956  Q 1366 3272 1645 3428  Q 1925 3584 2291 3584  Q 2894 3584 3203 3211  Q 3513 2838 3513 2113  z "
                 transform="scale(0.015625)" />
            </defs>
            <use
               xlink:href="#DejaVuSans-62"
               id="use25" />
            <use
               xlink:href="#DejaVuSans-61"
               transform="translate(63.476562 0)"
               id="use26" />
            <use
               xlink:href="#DejaVuSans-74"
               transform="translate(124.755859 0)"
               id="use27" />
            <use
               xlink:href="#DejaVuSans-63"
               transform="translate(163.964844 0)"
               id="use28" />
            <use
               xlink:href="#DejaVuSans-68"
               transform="translate(218.945312 0)"
               id="use29" />
          </g>
        </g>
      </g>
      <g
         id="matplotlib.axis_2">
        <g
           id="ytick_1">
          <g
             id="line2d_8">
            <path
               d="M 49.807188 331.161392  L 333.12946 331.161392  "
               clip-path="url(#p7deb2f501c)"
               style="fill: none; stroke: #ffffff; stroke-linecap: round"
               id="path29" />
          </g>
          <g
             id="text_9">
            <!-- 0.0 -->
            <g
               style="fill: #262626"
               transform="translate(22.81375 335.340533) scale(0.11 -0.11)"
               id="g32">
              <defs
                 id="defs29">
                <path
                   id="DejaVuSans-2e"
                   d="M 684 794  L 1344 794  L 1344 0  L 684 0  L 684 794  z "
                   transform="scale(0.015625)" />
              </defs>
              <use
                 xlink:href="#DejaVuSans-30"
                 id="use30" />
              <use
                 xlink:href="#DejaVuSans-2e"
                 transform="translate(63.623047 0)"
                 id="use31" />
              <use
                 xlink:href="#DejaVuSans-30"
                 transform="translate(95.410156 0)"
                 id="use32" />
            </g>
          </g>
        </g>
        <g
           id="ytick_2">
          <g
             id="line2d_9">
            <path
               d="M 49.807188 292.177823  L 333.12946 292.177823  "
               clip-path="url(#p7deb2f501c)"
               style="fill: none; stroke: #ffffff; stroke-linecap: round"
               id="path32" />
          </g>
          <g
             id="text_10">
            <!-- 0.1 -->
            <g
               style="fill: #262626"
               transform="translate(22.81375 296.356964) scale(0.11 -0.11)"
               id="g35">
              <use
                 xlink:href="#DejaVuSans-30"
                 id="use33" />
              <use
                 xlink:href="#DejaVuSans-2e"
                 transform="translate(63.623047 0)"
                 id="use34" />
              <use
                 xlink:href="#DejaVuSans-31"
                 transform="translate(95.410156 0)"
                 id="use35" />
            </g>
          </g>
        </g>
        <g
           id="ytick_3">
          <g
             id="line2d_10">
            <path
               d="M 49.807188 253.194254  L 333.12946 253.194254  "
               clip-path="url(#p7deb2f501c)"
               style="fill: none; stroke: #ffffff; stroke-linecap: round"
               id="path35" />
          </g>
          <g
             id="text_11">
            <!-- 0.2 -->
            <g
               style="fill: #262626"
               transform="translate(22.81375 257.373395) scale(0.11 -0.11)"
               id="g38">
              <use
                 xlink:href="#DejaVuSans-30"
                 id="use36" />
              <use
                 xlink:href="#DejaVuSans-2e"
                 transform="translate(63.623047 0)"
                 id="use37" />
              <use
                 xlink:href="#DejaVuSans-32"
                 transform="translate(95.410156 0)"
                 id="use38" />
            </g>
          </g>
        </g>
        <g
           id="ytick_4">
          <g
             id="line2d_11">
            <path
               d="M 49.807188 214.210685  L 333.12946 214.210685  "
               clip-path="url(#p7deb2f501c)"
               style="fill: none; stroke: #ffffff; stroke-linecap: round"
               id="path38" />
          </g>
          <g
             id="text_12">
            <!-- 0.3 -->
            <g
               style="fill: #262626"
               transform="translate(22.81375 218.389826) scale(0.11 -0.11)"
               id="g41">
              <defs
                 id="defs38">
                <path
                   id="DejaVuSans-33"
                   d="M 2597 2516  Q 3050 2419 3304 2112  Q 3559 1806 3559 1356  Q 3559 666 3084 287  Q 2609 -91 1734 -91  Q 1441 -91 1130 -33  Q 819 25 488 141  L 488 750  Q 750 597 1062 519  Q 1375 441 1716 441  Q 2309 441 2620 675  Q 2931 909 2931 1356  Q 2931 1769 2642 2001  Q 2353 2234 1838 2234  L 1294 2234  L 1294 2753  L 1863 2753  Q 2328 2753 2575 2939  Q 2822 3125 2822 3475  Q 2822 3834 2567 4026  Q 2313 4219 1838 4219  Q 1578 4219 1281 4162  Q 984 4106 628 3988  L 628 4550  Q 988 4650 1302 4700  Q 1616 4750 1894 4750  Q 2613 4750 3031 4423  Q 3450 4097 3450 3541  Q 3450 3153 3228 2886  Q 3006 2619 2597 2516  z "
                   transform="scale(0.015625)" />
              </defs>
              <use
                 xlink:href="#DejaVuSans-30"
                 id="use39" />
              <use
                 xlink:href="#DejaVuSans-2e"
                 transform="translate(63.623047 0)"
                 id="use40" />
              <use
                 xlink:href="#DejaVuSans-33"
                 transform="translate(95.410156 0)"
                 id="use41" />
            </g>
          </g>
        </g>
        <g
           id="ytick_5">
          <g
             id="line2d_12">
            <path
               d="M 49.807188 175.227116  L 333.12946 175.227116  "
               clip-path="url(#p7deb2f501c)"
               style="fill: none; stroke: #ffffff; stroke-linecap: round"
               id="path41" />
          </g>
          <g
             id="text_13">
            <!-- 0.4 -->
            <g
               style="fill: #262626"
               transform="translate(22.81375 179.406257) scale(0.11 -0.11)"
               id="g44">
              <defs
                 id="defs41">
                <path
                   id="DejaVuSans-34"
                   d="M 2419 4116  L 825 1625  L 2419 1625  L 2419 4116  z M 2253 4666  L 3047 4666  L 3047 1625  L 3713 1625  L 3713 1100  L 3047 1100  L 3047 0  L 2419 0  L 2419 1100  L 313 1100  L 313 1709  L 2253 4666  z "
                   transform="scale(0.015625)" />
              </defs>
              <use
                 xlink:href="#DejaVuSans-30"
                 id="use42" />
              <use
                 xlink:href="#DejaVuSans-2e"
                 transform="translate(63.623047 0)"
                 id="use43" />
              <use
                 xlink:href="#DejaVuSans-34"
                 transform="translate(95.410156 0)"
                 id="use44" />
            </g>
          </g>
        </g>
        <g
           id="ytick_6">
          <g
             id="line2d_13">
            <path
               d="M 49.807188 136.243547  L 333.12946 136.243547  "
               clip-path="url(#p7deb2f501c)"
               style="fill: none; stroke: #ffffff; stroke-linecap: round"
               id="path44" />
          </g>
          <g
             id="text_14">
            <!-- 0.5 -->
            <g
               style="fill: #262626"
               transform="translate(22.81375 140.422688) scale(0.11 -0.11)"
               id="g47">
              <use
                 xlink:href="#DejaVuSans-30"
                 id="use45" />
              <use
                 xlink:href="#DejaVuSans-2e"
                 transform="translate(63.623047 0)"
                 id="use46" />
              <use
                 xlink:href="#DejaVuSans-35"
                 transform="translate(95.410156 0)"
                 id="use47" />
            </g>
          </g>
        </g>
        <g
           id="ytick_7">
          <g
             id="line2d_14">
            <path
               d="M 49.807188 97.259978  L 333.12946 97.259978  "
               clip-path="url(#p7deb2f501c)"
               style="fill: none; stroke: #ffffff; stroke-linecap: round"
               id="path47" />
          </g>
          <g
             id="text_15">
            <!-- 0.6 -->
            <g
               style="fill: #262626"
               transform="translate(22.81375 101.439119) scale(0.11 -0.11)"
               id="g50">
              <defs
                 id="defs47">
                <path
                   id="DejaVuSans-36"
                   d="M 2113 2584  Q 1688 2584 1439 2293  Q 1191 2003 1191 1497  Q 1191 994 1439 701  Q 1688 409 2113 409  Q 2538 409 2786 701  Q 3034 994 3034 1497  Q 3034 2003 2786 2293  Q 2538 2584 2113 2584  z M 3366 4563  L 3366 3988  Q 3128 4100 2886 4159  Q 2644 4219 2406 4219  Q 1781 4219 1451 3797  Q 1122 3375 1075 2522  Q 1259 2794 1537 2939  Q 1816 3084 2150 3084  Q 2853 3084 3261 2657  Q 3669 2231 3669 1497  Q 3669 778 3244 343  Q 2819 -91 2113 -91  Q 1303 -91 875 529  Q 447 1150 447 2328  Q 447 3434 972 4092  Q 1497 4750 2381 4750  Q 2619 4750 2861 4703  Q 3103 4656 3366 4563  z "
                   transform="scale(0.015625)" />
              </defs>
              <use
                 xlink:href="#DejaVuSans-30"
                 id="use48" />
              <use
                 xlink:href="#DejaVuSans-2e"
                 transform="translate(63.623047 0)"
                 id="use49" />
              <use
                 xlink:href="#DejaVuSans-36"
                 transform="translate(95.410156 0)"
                 id="use50" />
            </g>
          </g>
        </g>
        <g
           id="text_16">
          <!-- proportion correct -->
          <g
             style="fill: #262626"
             transform="translate(16.318125 256.080937) rotate(-90) scale(0.12 -0.12)"
             id="g68">
            <defs
               id="defs50">
              <path
                 id="DejaVuSans-70"
                 d="M 1159 525  L 1159 -1331  L 581 -1331  L 581 3500  L 1159 3500  L 1159 2969  Q 1341 3281 1617 3432  Q 1894 3584 2278 3584  Q 2916 3584 3314 3078  Q 3713 2572 3713 1747  Q 3713 922 3314 415  Q 2916 -91 2278 -91  Q 1894 -91 1617 61  Q 1341 213 1159 525  z M 3116 1747  Q 3116 2381 2855 2742  Q 2594 3103 2138 3103  Q 1681 3103 1420 2742  Q 1159 2381 1159 1747  Q 1159 1113 1420 752  Q 1681 391 2138 391  Q 2594 391 2855 752  Q 3116 1113 3116 1747  z "
                 transform="scale(0.015625)" />
              <path
                 id="DejaVuSans-72"
                 d="M 2631 2963  Q 2534 3019 2420 3045  Q 2306 3072 2169 3072  Q 1681 3072 1420 2755  Q 1159 2438 1159 1844  L 1159 0  L 581 0  L 581 3500  L 1159 3500  L 1159 2956  Q 1341 3275 1631 3429  Q 1922 3584 2338 3584  Q 2397 3584 2469 3576  Q 2541 3569 2628 3553  L 2631 2963  z "
                 transform="scale(0.015625)" />
              <path
                 id="DejaVuSans-6f"
                 d="M 1959 3097  Q 1497 3097 1228 2736  Q 959 2375 959 1747  Q 959 1119 1226 758  Q 1494 397 1959 397  Q 2419 397 2687 759  Q 2956 1122 2956 1747  Q 2956 2369 2687 2733  Q 2419 3097 1959 3097  z M 1959 3584  Q 2709 3584 3137 3096  Q 3566 2609 3566 1747  Q 3566 888 3137 398  Q 2709 -91 1959 -91  Q 1206 -91 779 398  Q 353 888 353 1747  Q 353 2609 779 3096  Q 1206 3584 1959 3584  z "
                 transform="scale(0.015625)" />
              <path
                 id="DejaVuSans-69"
                 d="M 603 3500  L 1178 3500  L 1178 0  L 603 0  L 603 3500  z M 603 4863  L 1178 4863  L 1178 4134  L 603 4134  L 603 4863  z "
                 transform="scale(0.015625)" />
              <path
                 id="DejaVuSans-6e"
                 d="M 3513 2113  L 3513 0  L 2938 0  L 2938 2094  Q 2938 2591 2744 2837  Q 2550 3084 2163 3084  Q 1697 3084 1428 2787  Q 1159 2491 1159 1978  L 1159 0  L 581 0  L 581 3500  L 1159 3500  L 1159 2956  Q 1366 3272 1645 3428  Q 1925 3584 2291 3584  Q 2894 3584 3203 3211  Q 3513 2838 3513 2113  z "
                 transform="scale(0.015625)" />
              <path
                 id="DejaVuSans-20"
                 transform="scale(0.015625)" />
              <path
                 id="DejaVuSans-65"
                 d="M 3597 1894  L 3597 1613  L 953 1613  Q 991 1019 1311 708  Q 1631 397 2203 397  Q 2534 397 2845 478  Q 3156 559 3463 722  L 3463 178  Q 3153 47 2828 -22  Q 2503 -91 2169 -91  Q 1331 -91 842 396  Q 353 884 353 1716  Q 353 2575 817 3079  Q 1281 3584 2069 3584  Q 2775 3584 3186 3129  Q 3597 2675 3597 1894  z M 3022 2063  Q 3016 2534 2758 2815  Q 2500 3097 2075 3097  Q 1594 3097 1305 2825  Q 1016 2553 972 2059  L 3022 2063  z "
                 transform="scale(0.015625)" />
            </defs>
            <use
               xlink:href="#DejaVuSans-70"
               id="use51" />
            <use
               xlink:href="#DejaVuSans-72"
               transform="translate(63.476562 0)"
               id="use52" />
            <use
               xlink:href="#DejaVuSans-6f"
               transform="translate(102.339844 0)"
               id="use53" />
            <use
               xlink:href="#DejaVuSans-70"
               transform="translate(163.521484 0)"
               id="use54" />
            <use
               xlink:href="#DejaVuSans-6f"
               transform="translate(226.998047 0)"
               id="use55" />
            <use
               xlink:href="#DejaVuSans-72"
               transform="translate(288.179688 0)"
               id="use56" />
            <use
               xlink:href="#DejaVuSans-74"
               transform="translate(329.292969 0)"
               id="use57" />
            <use
               xlink:href="#DejaVuSans-69"
               transform="translate(368.501953 0)"
               id="use58" />
            <use
               xlink:href="#DejaVuSans-6f"
               transform="translate(396.285156 0)"
               id="use59" />
            <use
               xlink:href="#DejaVuSans-6e"
               transform="translate(457.466797 0)"
               id="use60" />
            <use
               xlink:href="#DejaVuSans-20"
               transform="translate(520.845703 0)"
               id="use61" />
            <use
               xlink:href="#DejaVuSans-63"
               transform="translate(552.632812 0)"
               id="use62" />
            <use
               xlink:href="#DejaVuSans-6f"
               transform="translate(607.613281 0)"
               id="use63" />
            <use
               xlink:href="#DejaVuSans-72"
               transform="translate(668.794922 0)"
               id="use64" />
            <use
               xlink:href="#DejaVuSans-72"
               transform="translate(708.158203 0)"
               id="use65" />
            <use
               xlink:href="#DejaVuSans-65"
               transform="translate(747.021484 0)"
               id="use66" />
            <use
               xlink:href="#DejaVuSans-63"
               transform="translate(808.544922 0)"
               id="use67" />
            <use
               xlink:href="#DejaVuSans-74"
               transform="translate(863.525391 0)"
               id="use68" />
          </g>
        </g>
      </g>
      <g
         id="FillBetweenPolyCollection_1" />
      <g
         id="FillBetweenPolyCollection_2" />
      <g
         id="FillBetweenPolyCollection_3" />
      <g
         id="line2d_15">
        <path
           d="M 62.685473 113.718861  L 65.987597 113.718861  L 69.289721 113.718861  L 72.591846 113.718861  L 75.89397 113.718861  L 79.196095 113.718861  L 82.498219 113.718861  L 85.800343 113.718861  L 89.102468 113.718861  L 92.404592 113.718861  L 95.706716 113.718861  L 99.008841 113.750586  L 102.310965 113.718861  L 105.61309 113.718861  L 108.915214 113.718861  L 112.217338 113.718861  L 115.519463 145.856195  L 118.821587 114.321635  L 122.123712 113.718861  L 125.425836 113.718861  L 128.72796 113.718861  L 132.030085 113.718861  L 135.332209 113.718861  L 138.634334 141.382983  L 141.936458 137.671168  L 145.238582 121.14249  L 148.540707 113.940936  L 151.842831 115.717531  L 155.144955 113.750586  L 158.44708 115.019583  L 161.749204 113.814036  L 165.051329 132.785532  L 168.353453 113.750586  L 171.655577 113.718861  L 174.957702 113.718861  L 178.259826 114.480259  L 181.561951 113.940936  L 184.864075 113.814036  L 188.166199 114.448534  L 191.468324 113.877486  L 194.770448 113.877486  L 198.072573 113.718861  L 201.374697 113.718861  L 204.676821 113.718861  L 207.978946 113.718861  L 211.28107 113.718861  L 214.583194 113.718861  L 217.885319 113.718861  L 221.187443 113.718861  L 224.489568 113.718861  L 227.791692 113.782311  L 231.093816 113.718861  L 234.395941 113.718861  L 237.698065 113.718861  L 241.00019 113.750586  L 244.302314 113.718861  L 247.604438 113.718861  L 250.906563 113.718861  L 254.208687 113.718861  L 257.510812 113.718861  L 260.812936 113.687137  L 264.11506 113.718861  L 267.417185 113.718861  L 270.719309 113.718861  L 274.021433 113.718861  L 277.323558 113.718861  L 280.625682 113.718861  L 283.927807 113.718861  L 287.229931 113.718861  L 290.532055 113.718861  L 293.83418 113.718861  L 297.136304 113.718861  L 300.438429 113.718861  L 303.740553 113.718861  L 307.042677 113.687137  L 310.344802 113.718861  L 313.646926 113.687137  L 316.94905 113.718861  L 320.251175 113.718861  "
           clip-path="url(#p7deb2f501c)"
           style="fill: none; stroke: #4c72b0; stroke-width: 1.5; stroke-linecap: round"
           id="path68" />
      </g>
      <g
         id="line2d_16">
        <path
           d="M 62.685473 221.910982  L 65.987597 221.910982  L 69.289721 221.910982  L 72.591846 221.910982  L 75.89397 221.910982  L 79.196095 221.910982  L 82.498219 221.520104  L 85.800343 220.412617  L 89.102468 219.174836  L 92.404592 221.650397  L 95.706716 221.910982  L 99.008841 221.910982  L 102.310965 221.845836  L 105.61309 221.845836  L 108.915214 221.910982  L 112.217338 221.910982  L 115.519463 172.790643  L 118.821587 213.637397  L 122.123712 221.585251  L 125.425836 221.129226  L 128.72796 221.910982  L 132.030085 221.910982  L 135.332209 220.217178  L 138.634334 226.080348  L 141.936458 221.715543  L 145.238582 222.30186  L 148.540707 221.650397  L 151.842831 225.233446  L 155.144955 221.910982  L 158.44708 221.976129  L 161.749204 221.976129  L 165.051329 222.041275  L 168.353453 221.976129  L 171.655577 217.67647  L 174.957702 207.383349  L 178.259826 220.152031  L 181.561951 197.546252  L 184.864075 176.894863  L 188.166199 105.429329  L 191.468324 104.51728  L 194.770448 104.908158  L 198.072573 128.621426  L 201.374697 110.706183  L 204.676821 104.647573  L 207.978946 104.51728  L 211.28107 104.51728  L 214.583194 192.725423  L 217.885319 104.51728  L 221.187443 104.51728  L 224.489568 104.51728  L 227.791692 104.51728  L 231.093816 104.51728  L 234.395941 104.51728  L 237.698065 104.51728  L 241.00019 104.51728  L 244.302314 104.51728  L 247.604438 104.51728  L 250.906563 104.51728  L 254.208687 104.51728  L 257.510812 104.51728  L 260.812936 104.51728  L 264.11506 104.51728  L 267.417185 104.51728  L 270.719309 104.51728  L 274.021433 104.647573  L 277.323558 104.647573  L 280.625682 104.51728  L 283.927807 104.51728  L 287.229931 104.51728  L 290.532055 104.51728  L 293.83418 104.51728  L 297.136304 104.712719  L 300.438429 104.51728  L 303.740553 104.452134  L 307.042677 104.51728  L 310.344802 104.51728  L 313.646926 104.51728  L 316.94905 104.51728  L 320.251175 104.51728  "
           clip-path="url(#p7deb2f501c)"
           style="fill: none; stroke: #dd8452; stroke-width: 1.5; stroke-linecap: round"
           id="path69" />
      </g>
      <g
         id="line2d_17">
        <path
           d="M 62.685473 331.161392  L 65.987597 331.161392  L 69.289721 331.161392  L 72.591846 331.161392  L 75.89397 331.161392  L 79.196095 331.161392  L 82.498219 331.161392  L 85.800343 331.161392  L 89.102468 331.161392  L 92.404592 331.161392  L 95.706716 331.161392  L 99.008841 331.161392  L 102.310965 331.161392  L 105.61309 331.161392  L 108.915214 331.161392  L 112.217338 331.161392  L 115.519463 331.161392  L 118.821587 331.161392  L 122.123712 331.161392  L 125.425836 331.161392  L 128.72796 331.161392  L 132.030085 331.161392  L 135.332209 331.161392  L 138.634334 265.443364  L 141.936458 331.161392  L 145.238582 328.423141  L 148.540707 331.161392  L 151.842831 295.290302  L 155.144955 328.879516  L 158.44708 330.066092  L 161.749204 73.948333  L 165.051329 72.761758  L 168.353453 72.761758  L 171.655577 72.761758  L 174.957702 72.761758  L 178.259826 72.761758  L 181.561951 72.761758  L 184.864075 72.761758  L 188.166199 72.761758  L 191.468324 72.761758  L 194.770448 72.761758  L 198.072573 72.761758  L 201.374697 72.761758  L 204.676821 72.761758  L 207.978946 72.761758  L 211.28107 72.761758  L 214.583194 72.761758  L 217.885319 72.761758  L 221.187443 72.761758  L 224.489568 72.761758  L 227.791692 72.761758  L 231.093816 72.761758  L 234.395941 72.761758  L 237.698065 72.761758  L 241.00019 72.761758  L 244.302314 72.761758  L 247.604438 72.761758  L 250.906563 72.761758  L 254.208687 72.761758  L 257.510812 72.761758  L 260.812936 72.761758  L 264.11506 72.761758  L 267.417185 72.853033  L 270.719309 72.761758  L 274.021433 72.761758  L 277.323558 72.761758  L 280.625682 72.761758  L 283.927807 72.761758  L 287.229931 72.761758  L 290.532055 72.761758  L 293.83418 72.761758  L 297.136304 72.761758  L 300.438429 72.761758  L 303.740553 72.761758  L 307.042677 72.761758  L 310.344802 72.761758  L 313.646926 72.761758  L 316.94905 72.670483  L 320.251175 72.761758  "
           clip-path="url(#p7deb2f501c)"
           style="fill: none; stroke: #55a868; stroke-width: 1.5; stroke-linecap: round"
           id="path70" />
      </g>
      <g
         id="line2d_18" />
      <g
         id="line2d_19" />
      <g
         id="line2d_20" />
      <g
         id="patch_3">
        <path
           d="M 49.807188 344.085937  L 49.807188 59.745937  "
           style="fill: none; stroke: #ffffff; stroke-width: 1.25; stroke-linejoin: miter; stroke-linecap: square"
           id="path71" />
      </g>
      <g
         id="patch_4">
        <path
           d="M 49.807188 344.085937  L 333.12946 344.085937  "
           style="fill: none; stroke: #ffffff; stroke-width: 1.25; stroke-linejoin: miter; stroke-linecap: square"
           id="path72" />
      </g>
      <g
         id="text_17">
        <!-- hyperparameter setting = 4832087 -->
        <g
           style="fill: #262626"
           transform="translate(84.199574 53.745937) scale(0.12 -0.12)"
           id="g103">
          <defs
             id="defs72">
            <path
               id="DejaVuSans-79"
               d="M 2059 -325  Q 1816 -950 1584 -1140  Q 1353 -1331 966 -1331  L 506 -1331  L 506 -850  L 844 -850  Q 1081 -850 1212 -737  Q 1344 -625 1503 -206  L 1606 56  L 191 3500  L 800 3500  L 1894 763  L 2988 3500  L 3597 3500  L 2059 -325  z "
               transform="scale(0.015625)" />
            <path
               id="DejaVuSans-6d"
               d="M 3328 2828  Q 3544 3216 3844 3400  Q 4144 3584 4550 3584  Q 5097 3584 5394 3201  Q 5691 2819 5691 2113  L 5691 0  L 5113 0  L 5113 2094  Q 5113 2597 4934 2840  Q 4756 3084 4391 3084  Q 3944 3084 3684 2787  Q 3425 2491 3425 1978  L 3425 0  L 2847 0  L 2847 2094  Q 2847 2600 2669 2842  Q 2491 3084 2119 3084  Q 1678 3084 1418 2786  Q 1159 2488 1159 1978  L 1159 0  L 581 0  L 581 3500  L 1159 3500  L 1159 2956  Q 1356 3278 1631 3431  Q 1906 3584 2284 3584  Q 2666 3584 2933 3390  Q 3200 3197 3328 2828  z "
               transform="scale(0.015625)" />
            <path
               id="DejaVuSans-73"
               d="M 2834 3397  L 2834 2853  Q 2591 2978 2328 3040  Q 2066 3103 1784 3103  Q 1356 3103 1142 2972  Q 928 2841 928 2578  Q 928 2378 1081 2264  Q 1234 2150 1697 2047  L 1894 2003  Q 2506 1872 2764 1633  Q 3022 1394 3022 966  Q 3022 478 2636 193  Q 2250 -91 1575 -91  Q 1294 -91 989 -36  Q 684 19 347 128  L 347 722  Q 666 556 975 473  Q 1284 391 1588 391  Q 1994 391 2212 530  Q 2431 669 2431 922  Q 2431 1156 2273 1281  Q 2116 1406 1581 1522  L 1381 1569  Q 847 1681 609 1914  Q 372 2147 372 2553  Q 372 3047 722 3315  Q 1072 3584 1716 3584  Q 2034 3584 2315 3537  Q 2597 3491 2834 3397  z "
               transform="scale(0.015625)" />
            <path
               id="DejaVuSans-67"
               d="M 2906 1791  Q 2906 2416 2648 2759  Q 2391 3103 1925 3103  Q 1463 3103 1205 2759  Q 947 2416 947 1791  Q 947 1169 1205 825  Q 1463 481 1925 481  Q 2391 481 2648 825  Q 2906 1169 2906 1791  z M 3481 434  Q 3481 -459 3084 -895  Q 2688 -1331 1869 -1331  Q 1566 -1331 1297 -1286  Q 1028 -1241 775 -1147  L 775 -588  Q 1028 -725 1275 -790  Q 1522 -856 1778 -856  Q 2344 -856 2625 -561  Q 2906 -266 2906 331  L 2906 616  Q 2728 306 2450 153  Q 2172 0 1784 0  Q 1141 0 747 490  Q 353 981 353 1791  Q 353 2603 747 3093  Q 1141 3584 1784 3584  Q 2172 3584 2450 3431  Q 2728 3278 2906 2969  L 2906 3500  L 3481 3500  L 3481 434  z "
               transform="scale(0.015625)" />
            <path
               id="DejaVuSans-3d"
               d="M 678 2906  L 4684 2906  L 4684 2381  L 678 2381  L 678 2906  z M 678 1631  L 4684 1631  L 4684 1100  L 678 1100  L 678 1631  z "
               transform="scale(0.015625)" />
            <path
               id="DejaVuSans-38"
               d="M 2034 2216  Q 1584 2216 1326 1975  Q 1069 1734 1069 1313  Q 1069 891 1326 650  Q 1584 409 2034 409  Q 2484 409 2743 651  Q 3003 894 3003 1313  Q 3003 1734 2745 1975  Q 2488 2216 2034 2216  z M 1403 2484  Q 997 2584 770 2862  Q 544 3141 544 3541  Q 544 4100 942 4425  Q 1341 4750 2034 4750  Q 2731 4750 3128 4425  Q 3525 4100 3525 3541  Q 3525 3141 3298 2862  Q 3072 2584 2669 2484  Q 3125 2378 3379 2068  Q 3634 1759 3634 1313  Q 3634 634 3220 271  Q 2806 -91 2034 -91  Q 1263 -91 848 271  Q 434 634 434 1313  Q 434 1759 690 2068  Q 947 2378 1403 2484  z M 1172 3481  Q 1172 3119 1398 2916  Q 1625 2713 2034 2713  Q 2441 2713 2670 2916  Q 2900 3119 2900 3481  Q 2900 3844 2670 4047  Q 2441 4250 2034 4250  Q 1625 4250 1398 4047  Q 1172 3844 1172 3481  z "
               transform="scale(0.015625)" />
          </defs>
          <use
             xlink:href="#DejaVuSans-68"
             id="use72" />
          <use
             xlink:href="#DejaVuSans-79"
             transform="translate(63.378906 0)"
             id="use73" />
          <use
             xlink:href="#DejaVuSans-70"
             transform="translate(122.558594 0)"
             id="use74" />
          <use
             xlink:href="#DejaVuSans-65"
             transform="translate(186.035156 0)"
             id="use75" />
          <use
             xlink:href="#DejaVuSans-72"
             transform="translate(247.558594 0)"
             id="use76" />
          <use
             xlink:href="#DejaVuSans-70"
             transform="translate(288.671875 0)"
             id="use77" />
          <use
             xlink:href="#DejaVuSans-61"
             transform="translate(352.148438 0)"
             id="use78" />
          <use
             xlink:href="#DejaVuSans-72"
             transform="translate(413.427734 0)"
             id="use79" />
          <use
             xlink:href="#DejaVuSans-61"
             transform="translate(454.541016 0)"
             id="use80" />
          <use
             xlink:href="#DejaVuSans-6d"
             transform="translate(515.820312 0)"
             id="use81" />
          <use
             xlink:href="#DejaVuSans-65"
             transform="translate(613.232422 0)"
             id="use82" />
          <use
             xlink:href="#DejaVuSans-74"
             transform="translate(674.755859 0)"
             id="use83" />
          <use
             xlink:href="#DejaVuSans-65"
             transform="translate(713.964844 0)"
             id="use84" />
          <use
             xlink:href="#DejaVuSans-72"
             transform="translate(775.488281 0)"
             id="use85" />
          <use
             xlink:href="#DejaVuSans-20"
             transform="translate(816.601562 0)"
             id="use86" />
          <use
             xlink:href="#DejaVuSans-73"
             transform="translate(848.388672 0)"
             id="use87" />
          <use
             xlink:href="#DejaVuSans-65"
             transform="translate(900.488281 0)"
             id="use88" />
          <use
             xlink:href="#DejaVuSans-74"
             transform="translate(962.011719 0)"
             id="use89" />
          <use
             xlink:href="#DejaVuSans-74"
             transform="translate(1001.220703 0)"
             id="use90" />
          <use
             xlink:href="#DejaVuSans-69"
             transform="translate(1040.429688 0)"
             id="use91" />
          <use
             xlink:href="#DejaVuSans-6e"
             transform="translate(1068.212891 0)"
             id="use92" />
          <use
             xlink:href="#DejaVuSans-67"
             transform="translate(1131.591797 0)"
             id="use93" />
          <use
             xlink:href="#DejaVuSans-20"
             transform="translate(1195.068359 0)"
             id="use94" />
          <use
             xlink:href="#DejaVuSans-3d"
             transform="translate(1226.855469 0)"
             id="use95" />
          <use
             xlink:href="#DejaVuSans-20"
             transform="translate(1310.644531 0)"
             id="use96" />
          <use
             xlink:href="#DejaVuSans-34"
             transform="translate(1342.431641 0)"
             id="use97" />
          <use
             xlink:href="#DejaVuSans-38"
             transform="translate(1406.054688 0)"
             id="use98" />
          <use
             xlink:href="#DejaVuSans-33"
             transform="translate(1469.677734 0)"
             id="use99" />
          <use
             xlink:href="#DejaVuSans-32"
             transform="translate(1533.300781 0)"
             id="use100" />
          <use
             xlink:href="#DejaVuSans-30"
             transform="translate(1596.923828 0)"
             id="use101" />
          <use
             xlink:href="#DejaVuSans-38"
             transform="translate(1660.546875 0)"
             id="use102" />
          <use
             xlink:href="#DejaVuSans-37"
             transform="translate(1724.169922 0)"
             id="use103" />
        </g>
      </g>
    </g>
    <g
       id="legend_1">
      <g
         id="line2d_21">
        <path
           d="M 60.003407 16.108281  L 71.003407 16.108281  L 82.003407 16.108281  "
           style="fill: none; stroke: #4c72b0; stroke-width: 1.5; stroke-linecap: round"
           id="path103" />
      </g>
      <g
         id="text_18">
        <!-- factive -->
        <g
           style="fill: #262626"
           transform="translate(90.803407 19.958281) scale(0.11 -0.11)"
           id="g110">
          <defs
             id="defs103">
            <path
               id="DejaVuSans-66"
               d="M 2375 4863  L 2375 4384  L 1825 4384  Q 1516 4384 1395 4259  Q 1275 4134 1275 3809  L 1275 3500  L 2222 3500  L 2222 3053  L 1275 3053  L 1275 0  L 697 0  L 697 3053  L 147 3053  L 147 3500  L 697 3500  L 697 3744  Q 697 4328 969 4595  Q 1241 4863 1831 4863  L 2375 4863  z "
               transform="scale(0.015625)" />
            <path
               id="DejaVuSans-76"
               d="M 191 3500  L 800 3500  L 1894 563  L 2988 3500  L 3597 3500  L 2284 0  L 1503 0  L 191 3500  z "
               transform="scale(0.015625)" />
          </defs>
          <use
             xlink:href="#DejaVuSans-66"
             id="use104" />
          <use
             xlink:href="#DejaVuSans-61"
             transform="translate(35.205078 0)"
             id="use105" />
          <use
             xlink:href="#DejaVuSans-63"
             transform="translate(96.484375 0)"
             id="use106" />
          <use
             xlink:href="#DejaVuSans-74"
             transform="translate(151.464844 0)"
             id="use107" />
          <use
             xlink:href="#DejaVuSans-69"
             transform="translate(190.673828 0)"
             id="use108" />
          <use
             xlink:href="#DejaVuSans-76"
             transform="translate(218.457031 0)"
             id="use109" />
          <use
             xlink:href="#DejaVuSans-65"
             transform="translate(277.636719 0)"
             id="use110" />
        </g>
      </g>
      <g
         id="line2d_22">
        <path
           d="M 150.112313 16.108281  L 161.112313 16.108281  L 172.112313 16.108281  "
           style="fill: none; stroke: #dd8452; stroke-width: 1.5; stroke-linecap: round"
           id="path110" />
      </g>
      <g
         id="text_19">
        <!-- contrafactive -->
        <g
           style="fill: #262626"
           transform="translate(180.912313 19.958281) scale(0.11 -0.11)"
           id="g123">
          <use
             xlink:href="#DejaVuSans-63"
             id="use111" />
          <use
             xlink:href="#DejaVuSans-6f"
             transform="translate(54.980469 0)"
             id="use112" />
          <use
             xlink:href="#DejaVuSans-6e"
             transform="translate(116.162109 0)"
             id="use113" />
          <use
             xlink:href="#DejaVuSans-74"
             transform="translate(179.541016 0)"
             id="use114" />
          <use
             xlink:href="#DejaVuSans-72"
             transform="translate(218.75 0)"
             id="use115" />
          <use
             xlink:href="#DejaVuSans-61"
             transform="translate(259.863281 0)"
             id="use116" />
          <use
             xlink:href="#DejaVuSans-66"
             transform="translate(321.142578 0)"
             id="use117" />
          <use
             xlink:href="#DejaVuSans-61"
             transform="translate(356.347656 0)"
             id="use118" />
          <use
             xlink:href="#DejaVuSans-63"
             transform="translate(417.626953 0)"
             id="use119" />
          <use
             xlink:href="#DejaVuSans-74"
             transform="translate(472.607422 0)"
             id="use120" />
          <use
             xlink:href="#DejaVuSans-69"
             transform="translate(511.816406 0)"
             id="use121" />
          <use
             xlink:href="#DejaVuSans-76"
             transform="translate(539.599609 0)"
             id="use122" />
          <use
             xlink:href="#DejaVuSans-65"
             transform="translate(598.779297 0)"
             id="use123" />
        </g>
      </g>
      <g
         id="line2d_23">
        <path
           d="M 275.546688 16.108281  L 286.546688 16.108281  L 297.546688 16.108281  "
           style="fill: none; stroke: #55a868; stroke-width: 1.5; stroke-linecap: round"
           id="path123" />
      </g>
      <g
         id="text_20">
        <!-- non-factive -->
        <g
           style="fill: #262626"
           transform="translate(306.346688 19.958281) scale(0.11 -0.11)"
           id="g134">
          <defs
             id="defs123">
            <path
               id="DejaVuSans-2d"
               d="M 313 2009  L 1997 2009  L 1997 1497  L 313 1497  L 313 2009  z "
               transform="scale(0.015625)" />
          </defs>
          <use
             xlink:href="#DejaVuSans-6e"
             id="use124" />
          <use
             xlink:href="#DejaVuSans-6f"
             transform="translate(63.378906 0)"
             id="use125" />
          <use
             xlink:href="#DejaVuSans-6e"
             transform="translate(124.560547 0)"
             id="use126" />
          <use
             xlink:href="#DejaVuSans-2d"
             transform="translate(187.939453 0)"
             id="use127" />
          <use
             xlink:href="#DejaVuSans-66"
             transform="translate(224.023438 0)"
             id="use128" />
          <use
             xlink:href="#DejaVuSans-61"
             transform="translate(259.228516 0)"
             id="use129" />
          <use
             xlink:href="#DejaVuSans-63"
             transform="translate(320.507812 0)"
             id="use130" />
          <use
             xlink:href="#DejaVuSans-74"
             transform="translate(375.488281 0)"
             id="use131" />
          <use
             xlink:href="#DejaVuSans-69"
             transform="translate(414.697266 0)"
             id="use132" />
          <use
             xlink:href="#DejaVuSans-76"
             transform="translate(442.480469 0)"
             id="use133" />
          <use
             xlink:href="#DejaVuSans-65"
             transform="translate(501.660156 0)"
             id="use134" />
        </g>
      </g>
    </g>
  </g>
  <defs
     id="defs134">
    <clipPath
       id="p7deb2f501c">
      <rect
         x="49.807188"
         y="59.745937"
         width="283.322272"
         height="284.34"
         id="rect134" />
    </clipPath>
  </defs>
</svg>
